PathFileType	4	(X/Y/Z)	C:/Users/beibeiliu/ov580/test_trc/User3\out6_training_dense_left.trc
DataRate	CameraRate	NumFrames	NumMarkers	Units	OrigDataRate	OrigDataStartFrame	OrigNumFrames
120	120	11	19	mm	120	376	500
Frame#	Time	ThumbCMC			ThumbMCP			ThumbIP			ThumbTip			IndexMCP			IndexPIP			IndexTip			MiddleMCP			MiddlePIP			MiddleTip			RingMCP			RingPIP			RingTip			PinkyMCP			PinkyPIP			PinkyTip			BackHand1			BackHand2			BackHand3	
		X0	Y0	Z0	X1	Y1	Z1	X2	Y2	Z2	X3	Y3	Z3	X4	Y4	Z4	X5	Y5	Z5	X6	Y6	Z6	X7	Y7	Z7	X8	Y8	Z8	X9	Y9	Z9	X10	Y10	Z10	X11	Y11	Z11	X12	Y12	Z12	X13	Y13	Z13	X14	Y14	Z14	X15	Y15	Z15	X16	Y16	Z16	X17	Y17	Z17	X18	Y18	Z18	
375	3.125	-141.659	51.838	16.5528	-136.51	63.8302	-13.2971	-128.794	71.1392	-41.6963	-122.976	73.7529	-65.5125	-142.201	32.7333	-60.9496	-138.96	35.169	-88.1722	-135.688	37.2598	-115.854	-144.102	11.9303	-65.1142	-138.598	12.5023	-94.6115	-130.78	12.1102	-123.082	-138.834	-4.27885	-54.643	-134.238	-4.63978	-78.7348	-127.404	-11.3805	-107.715	-132.31	-24.7378	-39.9776	-126.587	-26.4352	-57.9141	-122.052	-30.2267	-80.7077	-158.928	-4.34627	-11.2725	-166.383	-2.79981	19.784	-164.362	28.7672	3.97982	
376	3.13333	-156.608	46.3187	14.3614	-156.732	60.3079	-15.4981	-149.835	61.8095	-42.8451	-144.988	69.0212	-63.8142	-148.909	24.7089	-64.1207	-146.766	28.8931	-90.6026	-142.871	28.5417	-110.619	-142.481	3.25076	-64.8424	-137.446	8.26419	-92.6325	-129.792	7.69316	-121.675	-130.531	-10.0787	-57.1643	-125.281	-13.196	-75.8085	-120.774	-10.3672	-98.9221	-121.972	-21.841	-37.7412	-113.527	-25.9026	-53.2059	-108.491	-26.5629	-77.3677	-155.042	-13.3238	-3.18663	-161.901	-10.3656	20.1685	-168.168	17.8925	-0.604271	
377	3.14167	-169.714	42.9752	14.8426	-171.056	49.6374	-15.5297	-166.07	53.5291	-43.1422	-163.657	60.5205	-63.4952	-157.077	23.0974	-63.2875	-153.94	26.5554	-88.2786	-148.226	23.6426	-110.828	-143.633	3.89544	-67.7359	-137.793	5.77463	-89.2484	-127.289	4.14947	-119.867	-128.613	-5.21392	-55.3859	-120.931	-7.69431	-73.0284	-115.363	-7.37513	-97.8884	-115.667	-16.5938	-33.0632	-104.972	-19.5928	-49.891	-100.408	-20.2423	-71.8953	-150.465	-13.9287	-2.64307	-154.343	-17.6162	23.2069	-172.326	8.50592	2.28766	
378	3.15	-175.739	36.1379	12.8355	-179.174	43.3716	-15.883	-178.656	50.1116	-44.1141	-173.971	52.0953	-65.0193	-160.294	17.2914	-63.5406	-159.256	22.318	-89.988	-151.438	19.3173	-111.51	-143.959	1.66394	-64.5835	-134.929	2.83079	-91.9995	-130.161	5.23555	-119.792	-127.609	-7.52878	-50.3984	-121.001	-7.78292	-73.6279	-114.781	-6.05723	-101.374	-113.688	-15.446	-34.7985	-102.999	-15.8175	-52.5861	-101.76	-15.5659	-71.6951	-146.908	-18.5046	-1.72786	-154.369	-22.8271	22.2265	-176.31	3.66521	4.16434	
379	3.15833	-180.988	32.4393	15.7064	-186.21	39.3001	-11.8309	-182.034	41.295	-38.7253	-183.464	48.7423	-63.4507	-161.792	13.9465	-58.4183	-158.107	15.0378	-83.72	-154.652	17.1206	-111.235	-145.595	-0.479279	-65.1948	-137.58	1.02983	-87.0702	-132.82	6.26074	-117.968	-130.449	-5.37327	-55.0648	-120.963	-6.68406	-71.8513	-116.508	-4.04902	-96.7169	-115.323	-12.4951	-35.5761	-105.978	-13.1122	-51.7478	-97.3645	-14.8864	-71.6007	-144.004	-21.0754	-0.482239	-152.755	-24.1191	23.5818	-176.681	1.44162	4.3111	
380	3.16667	-179.621	25.7059	14.8536	-187.796	32.9421	-13.7764	-187.161	36.5391	-42.5676	-183.894	38.9363	-63.5322	-163.523	9.7762	-61.791	-157.277	10.6036	-85.2869	-156.01	12.773	-109.873	-144.667	-3.66745	-60.637	-137.826	-2.29297	-87.6506	-132.251	3.21456	-122.19	-128.665	-8.15639	-52.6744	-122.897	-7.27768	-76.1467	-116.306	-4.79916	-100.585	-113.212	-14.4473	-34.3531	-106.214	-12.3666	-50.9942	-97.386	-12.3608	-73.3947	-144.188	-23.5111	-5.16057	-153.124	-23.7615	22.7794	-173.288	-4.444	2.34323	
381	3.175	-178.419	22.7082	15.9227	-186.605	29.4689	-12.8039	-188.288	33.2481	-43.4444	-186.557	39.0475	-62.7185	-160.659	6.01885	-61.5943	-160.823	10.1013	-82.9806	-151.173	7.46173	-112.589	-143.563	-6.66938	-64.7156	-139.003	-3.05375	-89.6971	-133.142	0.940506	-119.867	-127.946	-12.6722	-51.351	-123.531	-8.80672	-74.6365	-116.96	-8.23579	-98.4411	-114.614	-16.3795	-32.0578	-105.975	-15.5941	-53.226	-102.18	-11.3662	-74.506	-145.045	-26.2673	-3.47414	-152.175	-28.374	26.2969	-173.952	-7.6365	6.37727	
382	3.18333	-181.088	25.4574	18.352	-182.901	28.5999	-10.1377	-186.615	35.7694	-38.7652	-187.89	40.5869	-60.967	-162.439	6.68782	-57.7404	-158.306	6.54487	-87.7318	-153.308	6.78707	-111.59	-147.198	-6.09968	-65.3133	-143.096	-2.77012	-90.3533	-133.866	-1.28104	-120.71	-130.051	-13.0848	-55.7449	-124.377	-10.9334	-73.8386	-117.637	-10.5925	-100.81	-113.567	-20.8475	-37.0929	-110.122	-15.8477	-52.4553	-101.733	-17.4204	-76.3892	-147.816	-24.0722	-5.05476	-151.747	-27.9727	24.542	-172.767	-10.1773	6.76766	
383	3.19167	-174.138	23.7366	15.7568	-181.55	35.5367	-8.79493	-178.659	36.6906	-38.998	-180.406	43.7271	-62.5787	-164.242	8.03106	-59.9808	-157.553	7.57478	-84.0158	-151.792	7.99081	-112.244	-145.456	-9.12983	-60.8064	-140.176	-5.57419	-86.7149	-137.397	0.283722	-120.75	-133	-12.5048	-54.0039	-127.991	-10.9855	-75.3061	-122.018	-9.19102	-100.926	-116.698	-22.5368	-36.2425	-112.574	-18.1299	-57.8428	-104.709	-18.6942	-79.8369	-149.463	-24.3751	-3.45231	-153.766	-32.1422	26.0582	-176.651	-3.67671	7.09902	
384	3.2	-170.478	33.5594	21.0976	-172.574	40.2644	-10.1128	-173.305	48.2039	-37.5146	-168.818	50.9886	-58.7351	-159.976	10.8098	-60.375	-157.525	11.6297	-83.2512	-148.379	7.03958	-109.384	-150.536	-4.2219	-61.4206	-142.821	-3.23587	-87.4058	-136.785	0.339346	-120.559	-136.851	-15.3588	-52.8775	-130.391	-16.1487	-74.6821	-122.449	-15.9443	-102.126	-123.27	-26.2365	-33.3342	-118.837	-22.722	-57.7143	-114.909	-23.4957	-80.7308	-152.791	-25.9302	-4.93366	-158.9	-30.786	23.4578	-175.265	-0.43639	4.4069	
385	3.20833	-157.739	33.7613	19.9088	-160.479	45.6655	-8.8553	-156.552	52.8595	-33.9765	-152.803	57.8131	-57.876	-156.422	15.4124	-54.3811	-155.081	20.0176	-82.6232	-148.654	15.0248	-110.098	-151.93	1.09407	-63.0901	-144.61	0.497523	-89.8182	-138.188	2.66691	-119.43	-140.629	-16.5643	-52.2643	-137.322	-12.6887	-75.2877	-130.281	-14.568	-105.549	-131	-30.8192	-35.2015	-128.082	-27.4901	-54.5876	-124.322	-26.3445	-79.7768	-159.096	-24.1825	-3.58525	-165.241	-23.1453	26.9364	-171.533	6.45735	8.19897	
